<svg width="16" height="14" viewBox="0 0 16 14" fill="none" xmlns="http://www.w3.org/2000/svg">
<path d="M13.333 0H2.667C1.96032 0.00184652 1.28318 0.248303 0.783477 0.685543C0.283775 1.12278 0.0021103 1.71528 0 2.33363L0 11.6664C0 12.9509 1.2 14 2.667 14H13.333C14.0398 13.9984 14.7171 13.752 15.2168 13.3147C15.7166 12.8774 15.9982 12.2848 16 11.6664V2.33363C16 1.05 14.8 0 13.333 0ZM2.854 12.1222L1.647 11.0661L5.647 7.56613L6.104 7.966L2.854 12.1222ZM2.396 2.716L2.853 2.31613L7.999 5.94388L13.145 2.31613L13.602 2.716L7.998 8.4945L2.394 2.716H2.396ZM13.146 12.1222L9.896 7.966L10.353 7.56613L14.353 11.0661L13.146 12.1222Z" fill="#111111"/>
</svg>
