<svg width="18" height="18" viewBox="0 0 18 18" fill="none" xmlns="http://www.w3.org/2000/svg">
<path d="M5.71887 2.43738C4.84936 2.43998 4.01621 2.78654 3.40138 3.40138C2.78654 4.01621 2.43998 4.84936 2.43738 5.71887V12.2811C2.43998 13.1506 2.78654 13.9838 3.40138 14.5986C4.01621 15.2135 4.84936 15.56 5.71887 15.5626H12.2811C13.1506 15.56 13.9838 15.2135 14.5986 14.5986C15.2135 13.9838 15.56 13.1506 15.5626 12.2811V5.71887C15.56 4.84936 15.2135 4.01621 14.5986 3.40138C13.9838 2.78654 13.1506 2.43998 12.2811 2.43738H5.71887ZM5.71887 1.125H12.2811C14.8078 1.125 16.875 3.19219 16.875 5.71887V12.2811C16.875 14.8078 14.8078 16.875 12.2811 16.875H5.71887C3.19219 16.875 1.125 14.8078 1.125 12.2811V5.71887C1.125 3.19219 3.19219 1.125 5.71887 1.125Z" fill="#111111"/>
<path d="M4.7345 5.71875C4.92919 5.71875 5.11951 5.66102 5.28139 5.55285C5.44327 5.44469 5.56944 5.29095 5.64394 5.11108C5.71845 4.93121 5.73794 4.73328 5.69996 4.54233C5.66197 4.35138 5.56822 4.17598 5.43055 4.03832C5.29289 3.90065 5.11749 3.8069 4.92654 3.76891C4.73559 3.73093 4.53766 3.75043 4.35779 3.82493C4.17792 3.89944 4.02418 4.02561 3.91602 4.18749C3.80785 4.34937 3.75012 4.53968 3.75012 4.73437C3.74984 4.86372 3.77512 4.99185 3.82449 5.11141C3.87386 5.23096 3.94635 5.33959 4.03782 5.43105C4.12928 5.52252 4.23791 5.59501 4.35746 5.64438C4.47702 5.69376 4.60515 5.71903 4.7345 5.71875Z" fill="#111111"/>
<path d="M9 6.37488C8.4808 6.37488 7.97326 6.52884 7.54156 6.8173C7.10986 7.10575 6.7734 7.51573 6.57471 7.99541C6.37602 8.47509 6.32403 9.00291 6.42532 9.51214C6.52662 10.0214 6.77663 10.4891 7.14376 10.8562C7.51089 11.2234 7.97864 11.4734 8.48787 11.5747C8.99709 11.676 9.52491 11.624 10.0046 11.4253C10.4843 11.2266 10.8943 10.8901 11.1827 10.4584C11.4712 10.0267 11.6251 9.5192 11.6251 9C11.6244 8.304 11.3476 7.63673 10.8554 7.14458C10.3633 6.65244 9.696 6.37563 9 6.37488ZM9 5.0625C9.77876 5.0625 10.54 5.29343 11.1876 5.72609C11.8351 6.15875 12.3398 6.7737 12.6378 7.49318C12.9358 8.21267 13.0138 9.00437 12.8618 9.76817C12.7099 10.532 12.3349 11.2336 11.7842 11.7842C11.2336 12.3349 10.532 12.7099 9.76817 12.8618C9.00437 13.0138 8.21267 12.9358 7.49318 12.6378C6.7737 12.3398 6.15875 11.8351 5.72609 11.1876C5.29343 10.54 5.0625 9.77876 5.0625 9C5.0625 7.95571 5.47734 6.95419 6.21577 6.21577C6.95419 5.47734 7.95571 5.0625 9 5.0625Z" fill="#111111"/>
</svg>
