<svg width="10" height="16" viewBox="0 0 10 16" fill="none" xmlns="http://www.w3.org/2000/svg">
<path d="M5 0C3.67392 0 2.40215 0.526784 1.46447 1.46447C0.526784 2.40215 0 3.67392 0 5C0 10 5 16 5 16C5 16 10 10 10 5C10 3.67392 9.47322 2.40215 8.53553 1.46447C7.59785 0.526784 6.32608 0 5 0V0ZM5 8C4.20435 8 3.44129 7.68393 2.87868 7.12132C2.31607 6.55871 2 5.79565 2 5C2 4.20435 2.31607 3.44129 2.87868 2.87868C3.44129 2.31607 4.20435 2 5 2C5.79565 2 6.55871 2.31607 7.12132 2.87868C7.68393 3.44129 8 4.20435 8 5C8 5.79565 7.68393 6.55871 7.12132 7.12132C6.55871 7.68393 5.79565 8 5 8Z" fill="#DBDBDB"/>
</svg>
