<svg width="18" height="18" viewBox="0 0 18 18" fill="none" xmlns="http://www.w3.org/2000/svg">
<path d="M9.00177 1.125C4.65294 1.125 1.12677 4.65117 1.12677 9C1.12677 12.2238 3.06739 14.9941 5.84122 16.2141C5.82013 15.6656 5.83771 15.0047 5.97833 14.407C6.1295 13.7672 6.99083 10.1145 6.99083 10.1145C6.99083 10.1145 6.73771 9.61172 6.73771 8.86992C6.73771 7.70273 7.41271 6.83086 8.25646 6.83086C8.97365 6.83086 9.31818 7.36875 9.31818 8.01211C9.31818 8.73281 8.85763 9.80859 8.62208 10.807C8.42521 11.6438 9.04044 12.3223 9.86661 12.3223C11.3572 12.3223 12.3627 10.4062 12.3627 8.13516C12.3627 6.40898 11.199 5.11875 9.08615 5.11875C6.69904 5.11875 5.20841 6.90117 5.20841 8.89102C5.20841 9.57656 5.41232 10.0617 5.72872 10.4344C5.87286 10.6066 5.89396 10.677 5.84122 10.8738C5.80255 11.018 5.71818 11.366 5.6795 11.5066C5.62677 11.707 5.46505 11.7773 5.28575 11.7035C4.18536 11.2535 3.67208 10.0512 3.67208 8.69414C3.67208 6.4582 5.55997 3.77578 9.3006 3.77578C12.3065 3.77578 14.2858 5.95195 14.2858 8.28633C14.2858 11.3766 12.5666 13.6828 10.0354 13.6828C9.18458 13.6828 8.38654 13.2223 8.11232 12.702C8.11232 12.702 7.65529 14.516 7.55685 14.8676C7.39161 15.4758 7.06466 16.0805 6.76583 16.5551C7.49071 16.7689 8.24249 16.8778 8.99825 16.8785C13.3471 16.8785 16.8733 13.3523 16.8733 9.00352C16.8733 4.65469 13.3506 1.125 9.00177 1.125Z" fill="#111111"/>
</svg>
