<svg width="26" height="26" viewBox="0 0 26 26" fill="none" xmlns="http://www.w3.org/2000/svg">
<path d="M21.1819 3.24682C20.9211 3.26579 20.665 3.32698 20.4238 3.428H20.4206C20.189 3.51982 19.0881 3.98294 17.4143 4.68494L11.4164 7.211C7.11263 9.02288 2.88194 10.8071 2.88194 10.8071L2.93232 10.7876C2.93232 10.7876 2.64063 10.8835 2.33594 11.0923C2.14771 11.2121 1.98573 11.3688 1.85982 11.553C1.71032 11.7724 1.59007 12.1079 1.63475 12.4549C1.70788 13.0415 2.08813 13.3933 2.36113 13.5875C2.63738 13.7841 2.90063 13.8759 2.90063 13.8759H2.90713L6.87457 15.2125C7.05251 15.7837 8.08357 19.1734 8.33138 19.9543C8.47763 20.4206 8.61982 20.7123 8.79775 20.9349C8.88388 21.0487 8.98463 21.1438 9.10569 21.2201C9.16863 21.2567 9.23573 21.2857 9.30557 21.3063L9.26494 21.2965C9.27713 21.2998 9.28688 21.3095 9.29582 21.3128C9.32832 21.3217 9.35025 21.3249 9.39169 21.3314C10.0198 21.5216 10.5243 21.1316 10.5243 21.1316L10.5528 21.1088L12.8952 18.976L16.8212 21.9879L16.9106 22.0261C17.7288 22.3853 18.5575 22.1854 18.9954 21.8328C19.4366 21.4777 19.6081 21.0235 19.6081 21.0235L19.6365 20.9504L22.6704 5.40807C22.7565 5.02457 22.7784 4.66544 22.6834 4.31688C22.5853 3.96411 22.359 3.66071 22.0488 3.46619C21.7883 3.30785 21.4863 3.23142 21.1819 3.24682ZM21.0998 4.91244C21.0966 4.96363 21.1063 4.95794 21.0836 5.05625V5.06519L18.0781 20.4458C18.0651 20.4678 18.0432 20.5157 17.9831 20.5636C17.9197 20.614 17.8693 20.6457 17.6053 20.5409L12.8034 16.8594L9.90275 19.5033L10.5121 15.6114L18.3576 8.29894C18.681 7.99832 18.5729 7.93494 18.5729 7.93494C18.5957 7.56607 18.0846 7.82688 18.0846 7.82688L8.19163 13.9556L8.18838 13.9393L3.44663 12.3428V12.3395L3.43444 12.3371C3.44275 12.3343 3.45089 12.331 3.45882 12.3273L3.48482 12.3143L3.51 12.3054C3.51 12.3054 7.74394 10.5211 12.0478 8.70925C14.2025 7.80169 16.3735 6.88763 18.0432 6.18238C19.7129 5.48119 20.9471 4.96688 21.0169 4.93925C21.0836 4.91325 21.0519 4.91325 21.0998 4.91325V4.91244Z" fill="#F2F2F2"/>
</svg>
