<svg width="18" height="18" viewBox="0 0 18 18" fill="none" xmlns="http://www.w3.org/2000/svg">
<path d="M17.4375 3.84962C16.8045 4.12466 16.1347 4.30587 15.4494 4.38751C16.1696 3.96576 16.7113 3.29575 16.9727 2.50313C16.2918 2.90131 15.548 3.18069 14.7734 3.3293C14.4471 2.98742 14.0548 2.71544 13.6202 2.5299C13.1856 2.34436 12.7178 2.24913 12.2453 2.25001C10.3321 2.25001 8.78379 3.77579 8.78379 5.65665C8.78243 5.91827 8.81241 6.17911 8.87309 6.4336C7.50118 6.36928 6.1578 6.01931 4.9289 5.40607C3.7 4.79283 2.61263 3.92983 1.73637 2.87227C1.42895 3.39052 1.26637 3.98182 1.26562 4.58438C1.26562 5.76563 1.88191 6.80977 2.8125 7.42149C2.26115 7.4084 1.72111 7.26248 1.2382 6.9961V7.03829C1.2382 8.69063 2.43352 10.0652 4.01555 10.3781C3.71805 10.4574 3.41148 10.4976 3.10359 10.4977C2.88513 10.498 2.66715 10.4768 2.45285 10.4344C2.89266 11.7879 4.1727 12.7723 5.68898 12.8004C4.45689 13.7499 2.9442 14.2632 1.38867 14.2594C1.11256 14.259 0.836707 14.2425 0.5625 14.2102C2.14495 15.2206 3.98441 15.7551 5.86195 15.75C12.2379 15.75 15.7212 10.5574 15.7212 6.05391C15.7212 5.90626 15.7173 5.7586 15.7103 5.61446C16.3864 5.13354 16.9713 4.5359 17.4375 3.84962Z" fill="#111111"/>
</svg>
