<svg width="18" height="18" viewBox="0 0 18 18" fill="none" xmlns="http://www.w3.org/2000/svg">
<g clip-path="url(#clip0_3_241)">
<path d="M17.8819 5.2309C17.8819 3.64887 16.7182 2.37621 15.2803 2.37621C13.3327 2.28516 11.3464 2.25 9.31644 2.25H8.68362C6.65862 2.25 4.66878 2.28516 2.72112 2.37656C1.28675 2.37656 0.123078 3.65625 0.123078 5.23828C0.0351869 6.48949 -0.00207869 7.74105 3.06825e-05 8.99262C-0.00348494 10.2442 0.0363588 11.4969 0.119562 12.7508C0.119562 14.3329 1.28323 15.6161 2.71761 15.6161C4.7637 15.711 6.86253 15.7532 8.99652 15.7496C11.134 15.7567 13.227 15.7121 15.2754 15.6161C16.7133 15.6161 17.877 14.3329 17.877 12.7508C17.9614 11.4957 18 10.2442 17.9965 8.9891C18.0045 7.73754 17.9663 6.4848 17.8819 5.2309ZM7.27737 12.4414V5.53324L12.375 8.98559L7.27737 12.4414Z" fill="#111111"/>
</g>
<defs>
<clipPath id="clip0_3_241">
<rect width="18" height="18" fill="white"/>
</clipPath>
</defs>
</svg>
